<?xml version="1.0" encoding="UTF-8"?>
<svg enable-background="new 0 0 416 193" version="1.1" viewBox="0 0 416 193" xml:space="preserve" xmlns="http://www.w3.org/2000/svg">
    <style type="text/css">
	.st0{fill:#2462BC;}
	.st1{fill:#E73100;}
</style>
    <path class="st0" d="m101.73 150.74c-3.5 0.44-6.95-0.26-10.34-2.07-2.4-1.26-4.32-2.82-5.77-4.69-0.86-1.06-1.6-2.58-2.21-4.54-0.61-1.97-1.25-5.06-1.92-9.26-1.41-8.2-2.85-13.67-4.31-16.41-0.7-1.28-1.52-2.44-2.48-3.49-1.35-1.44-2.66-2.35-3.92-2.73-0.55-0.12-1.6-0.09-3.13 0.1-4.6 0.62-6.89 1-6.87 1.15 0.01 0.05 0.6 0.12 1.78 0.22l3.33 0.39 0.47 6.15c1.25 13.92-0.54 24.8-5.36 32.66-2.09 3.57-4.65 5.86-7.69 6.87-1.68 0.6-3.29 0.99-4.82 1.18-3.98 0.5-7.47-0.26-10.47-2.27s-5.23-5.14-6.68-9.39c-0.44-1.21-0.72-2.25-0.83-3.11-0.08-0.67-0.1-1.38-0.04-2.11 0.06-2.64 0.69-4.03 1.89-4.18l1.76 0.07c1.23 0.09 1.99 0.12 2.27 0.08 2.16-0.27 4.28-1.73 6.36-4.37s3.51-5.72 4.29-9.23c0.66-3.69 0.78-11.49 0.37-23.42-0.11-3.25-0.15-5.07-0.1-5.47 0-1.56-0.48-9.14-1.45-22.76-0.44-6.23-1.01-13-1.73-20.31l-4.86 0.83c-2.73 0.39-4.82 0.92-6.27 1.58-1.45 0.67-2.98 1.76-4.6 3.28-4.31 3.75-6.59 8.47-6.86 14.15-0.1 1.18-0.09 2.18 0.01 2.99 0.1 0.82 0.34 1.74 0.71 2.76 0.62 1.82 1.32 3.29 2.12 4.41s1.84 2.13 3.12 3.04c3.14 2.14 6.57 3.3 10.29 3.47 1.86 0.06 2.95 0.17 3.29 0.32s0.6 1.05 0.81 2.67c0.24 2.31 0.33 3.83 0.28 4.57s-0.3 1.67-0.75 2.8c-1.55 4.33-4.75 7.46-9.57 9.37-1.21 0.49-2.38 0.81-3.53 0.95-1.44 0.18-3.31 0.13-5.61-0.14s-4.31-0.78-6.03-1.51-3.59-1.9-5.59-3.5c-1.24-0.97-2.25-1.85-3.03-2.65s-1.59-1.86-2.44-3.17c-1.29-2.03-2.29-4.03-2.98-6.02-0.69-1.98-1.2-4.37-1.55-7.15-1.89-15.2 3.98-27.11 17.61-35.72 3.06-1.99 5.87-3.53 8.41-4.63 5.51-2.29 12.24-3.94 20.2-4.93 5.37-0.67 10.11-0.94 14.21-0.82 7.76 0.54 14.86 2.41 21.3 5.6 2.08 1.06 3.86 2.26 5.34 3.61s3.02 3.14 4.61 5.38c1.93 2.63 3.36 5.07 4.27 7.32s1.58 5.1 2.01 8.55c0.81 6.47 0.81 11.39 0.01 14.75-0.66 2.91-2.27 6.39-4.83 10.46-2.23 3.59-5.74 6.7-10.52 9.35l-3.35 1.81 1.72 0.3c6.63 0.88 11.29 5.07 13.98 12.58 0.73 1.95 1.49 4.73 2.28 8.34 0.76 3.36 1.39 5.72 1.9 7.07 0.92 2.27 2.31 4.25 4.17 5.94 1.87 1.69 3.83 2.8 5.89 3.32 1.15 0.25 1.83 0.5 2.03 0.77s0.33 0.62 0.39 1.05c0.2 1.58-1.35 3.45-4.63 5.62-1.88 1.15-4.01 1.88-6.36 2.17zm-37.05-52.94c0.66-0.13 1.33-0.26 2-0.39s1.73-0.41 3.18-0.84l0.64-0.15c2.05-0.69 4.01-1.83 5.86-3.4s3.23-3.3 4.14-5.19 1.51-4.45 1.82-7.68c0.3-3.23 0.26-6.45-0.14-9.66-0.32-2.54-0.77-4.65-1.37-6.33s-1.53-3.51-2.8-5.49c-3.89-6.23-9.77-9.42-17.63-9.56-1.95-0.05-4.08 0.07-6.38 0.36-1.15 0.14-1.72 0.29-1.7 0.43 0.11 0.08 1.13 0.3 3.08 0.64l3.63 0.42 5.67 46.84z"/>
    <path class="st0" d="m213.42 141.73c-1.57 0-2.68-0.05-3.32-0.16-0.65-0.11-1.41-0.43-2.27-0.97-2.11-1.41-3.93-3.23-5.47-5.47s-2.66-4.45-3.37-6.61l0.41-0.65c0.32-0.43 0.66-0.96 1.01-1.58s0.66-1.32 0.93-2.11c0.27-0.78 0.49-1.66 0.65-2.63s0.24-1.84 0.24-2.59c0-0.81-0.14-1.24-0.41-1.3-0.11 0-0.22 0.11-0.32 0.32-0.11 0.22-0.16 0.41-0.16 0.57 0 0.43-0.3 1.54-0.89 3.32-0.76 1.89-2.24 3.97-4.46 6.24-4.7 4.7-9.7 7.05-15 7.05-3.68 0-6.91-1.16-9.69-3.49-2.78-2.32-4.96-5.38-6.53-9.16s-2.35-7.87-2.35-12.24c0-2.76 0.35-5.54 1.05-8.35l0.49-1.78c0.05-0.32 0.16-0.65 0.32-0.97 1.73-4.81 4.57-8.53 8.51-11.15 3.95-2.62 8-3.93 12.16-3.93 0.97 0 1.92 0.08 2.84 0.24 3.73 0.65 6.78 2.03 9.16 4.14 0.92 0.76 1.54 1.13 1.86 1.13 0.16 0 0.32-0.7 0.49-2.11 0.22-2.54 0.32-4.81 0.32-6.81 0-5.24-0.81-9.27-2.43-12.08-1.3-2.86-3.41-4.3-6.32-4.3-2.11 0-3.86 0.68-5.27 2.03s-2.16 3.05-2.27 5.11c0 1.84 0.89 2.89 2.68 3.16 0.49 0 0.94 0.31 1.38 0.93 0.43 0.62 0.65 1.31 0.65 2.07 0 1.13-0.97 2.27-2.92 3.4-0.32 0.16-0.95 0.32-1.87 0.49-1.41 0.22-2.87 0.32-4.38 0.32-5.57 0-9.51-2.05-11.84-6.16-0.92-1.67-1.38-3.35-1.38-5.03 0-2.11 0.78-4.46 2.35-7.05 2.43-4 5.73-7.09 9.89-9.28s8.54-3.28 13.13-3.28c3.89 0 7.7 0.87 11.43 2.59 7.03 3.84 11.38 9.73 13.05 17.67 0.27 1.62 0.41 3.6 0.41 5.92 0 5.24-0.68 11.95-2.03 20.11-0.32 1.78-0.6 3.96-0.81 6.53-0.22 2.57-0.32 4.8-0.32 6.69 0 4.65 1.22 8.51 3.65 11.59 2 2.54 4.67 4.89 8.03 7.05 1.03 0.65 1.77 1.18 2.23 1.58 0.46 0.41 0.69 0.85 0.69 1.34 0 0.59-0.38 1.54-1.14 2.84-1.3 2.54-3.49 4.49-6.57 5.84-0.76 0.32-1.57 0.55-2.43 0.69-0.84 0.13-2.11 0.22-3.79 0.28zm-22.13-25.95c0.65 0 1.38-0.27 2.19-0.81 1.19-0.86 2.15-2.43 2.88-4.7s1.09-4.65 1.09-7.14c0-3.84-0.89-6.65-2.68-8.43-0.81-0.86-1.7-1.3-2.68-1.3-1.03 0-2.01 0.5-2.96 1.5s-1.72 2.47-2.31 4.42c-0.6 1.95-0.89 3.89-0.89 5.84 0 2.38 0.35 4.54 1.05 6.49 0.98 2.75 2.41 4.13 4.31 4.13z"/>
    <path class="st0" d="m268.74 135.34c-1.39-0.16-2.42-0.33-3.08-0.53s-1.4-0.56-2.21-1.09c-1.95-1.24-3.62-2.91-5.02-5.01-1.39-2.1-2.25-4.56-2.56-7.36-0.07-0.64-0.13-1.67-0.16-3.08 0.02-0.14 0.13-0.3 0.34-0.47 2.03-2.06 3.32-4.88 3.87-8.46l0.22-1.29-0.73 1.3c-0.44 0.92-1.04 1.93-1.8 3.01l-2.24 3.03c-4.87 6.5-10.39 10.21-16.57 11.12-0.79 0.1-1.57 0.11-2.34 0.03-2.16-0.24-4.32-1.03-6.48-2.37s-4-3.02-5.52-5.03c-1.69-2.23-3.03-5.62-4-10.15s-1.14-10.05-0.51-16.54c0.57-5.09 1.58-9.61 3.02-13.56s3.37-7.83 5.8-11.64c1.66-2.68 3.17-4.8 4.51-6.35s2.83-2.94 4.48-4.16c4.44-3.2 8.9-4.54 13.37-4.04 1.97 0.22 3.96 1.22 5.97 3.01 2.01 1.78 3.74 4.07 5.17 6.86l1.61 3.17c1.7-7.78 2.94-13.14 3.7-16.07l0.93-3.76c0.5-2.32 0.81-3.92 0.9-4.79 0.12-1.06 0.03-1.78-0.27-2.18s-0.92-0.81-1.87-1.23-1.54-0.89-1.78-1.4c-0.14-0.5-0.14-1.3-0.02-2.41 0.13-1.15 0.35-2.33 0.65-3.54 0.31-1.21 0.6-1.96 0.88-2.27 0.63-0.37 2.03-0.73 4.21-1.1 2.18-0.36 4.32-0.6 6.42-0.7 1.61-0.01 3.3 0.08 5.07 0.28 3.55 0.4 5.71 0.86 6.48 1.39 0.77 0.52 1.1 1.27 0.99 2.23-0.15 1.35-0.68 3.77-1.58 7.26-0.9 3.5-1.84 6.72-2.8 9.68-1.05 3.24-1.7 5.42-1.98 6.56-1.88 7.23-3.48 14.1-4.8 20.61l-0.9 4.13c-3.74 16.84-5.77 26.68-6.09 29.51-0.08 0.67-0.09 1.45-0.04 2.33l-0.01 0.73c0.04 3.12 0.64 5.74 1.81 7.86 1.17 2.13 3.02 4.25 5.55 6.39 0.84 0.73 1.44 1.28 1.78 1.66 0.35 0.38 0.49 0.78 0.45 1.22-0.06 0.58-0.5 1.43-1.31 2.55-1.34 1.99-3.48 3.45-6.4 4.39-1.23 0.37-2.94 0.47-5.11 0.27zm-22.58-24.27c0.67 0.08 1.46-0.03 2.37-0.32 3.07-0.97 5.59-3.87 7.54-8.71 0.15-0.91 0.39-1.8 0.7-2.69 0.32-0.89 0.58-1.78 0.78-2.68s0.44-1.92 0.71-3.06c0.79-3.17 1.35-6.19 1.68-9.07l0.13-1.15c0.51-6.26-0.58-10.37-3.28-12.33-0.76-0.57-1.6-0.91-2.51-1.01-2.16-0.24-4.44 0.81-6.85 3.17-4.48 4.36-7.19 10.74-8.13 19.14-0.33 2.98-0.38 5.5-0.12 7.57 0.91 5.31 2.59 8.75 5.04 10.34 0.62 0.45 1.27 0.72 1.94 0.8z"/>
    <path class="st0" d="m126.14 123.34c-2.62-0.69-4.36-1.23-5.21-1.62-8.66-3.78-14.27-10.87-16.84-21.25l-0.42-1.43c-0.27-1-0.46-1.81-0.57-2.43-1.07-6.04-0.91-12.12 0.47-18.25 1.07-4.76 2.36-8.93 3.86-12.51 1.14-2.66 2.5-5.16 4.06-7.48 2.12-3.24 4.12-5.81 6.01-7.71s4.05-3.54 6.5-4.93c6.5-3.59 12.42-4.78 17.75-3.58 1.56 0.35 3.02 0.9 4.38 1.66 6.82 4.26 10.67 10.38 11.54 18.35 0.05 0.66 0.02 1.65-0.08 2.99s-0.26 2.76-0.48 4.28c-0.22 1.51-0.45 2.81-0.69 3.89-0.3 1.32-0.85 2.9-1.66 4.75-3.06 6.99-7.35 11.2-12.87 12.63-2.31 0.57-4.33 0.88-6.08 0.93-2.2 0.1-4.72-0.17-7.55-0.81-1.56-0.35-2.68-0.7-3.37-1.06-0.69-0.35-1.17-0.56-1.46-0.63-0.19-0.04-0.3 0.01-0.33 0.15-0.1 0.42-0.06 1.36 0.11 2.81s0.39 2.99 0.67 4.61 0.57 2.95 0.89 3.99c0.31 1.04 0.73 2.15 1.26 3.33s1.04 2.18 1.56 2.99c0.64 1.13 1.22 1.96 1.75 2.47 0.53 0.52 1.21 0.99 2.06 1.43 1.19 0.66 2.28 1.11 3.27 1.33 1.98 0.45 4.42-0.07 7.33-1.54 6.55-2.93 11.84-8.92 15.86-17.98l0.82-1.97c0.4-0.9 0.95-1.46 1.64-1.67 0.69-0.22 1.32-0.26 1.89-0.13 1.41 0.32 1.97 1.16 1.66 2.53-0.54 1.96-1.62 4.66-3.24 8.11-2.18 4.86-4.69 9.05-7.51 12.57-0.42 0.55-0.86 1.05-1.3 1.49l-0.19 0.18c-2.03 2.62-4.32 4.67-6.89 6.18-3.22 2.2-6.99 3.45-11.32 3.77-1.47 0.16-2.67 0.22-3.6 0.16-0.95-0.06-2.17-0.26-3.68-0.6zm0.63-42.36c2.07 0.47 4.37 0.39 6.89-0.23 2.34-0.51 4.04-1.45 5.09-2.83 1.05-1.37 1.98-3.85 2.79-7.43 1.51-7.14 1.55-12.38 0.12-15.72-0.26-0.6-0.53-1.02-0.79-1.26-0.27-0.23-0.69-0.41-1.25-0.54-0.99-0.22-1.78-0.1-2.38 0.36-0.94 0.63-2.07 1.91-3.39 3.84-1.33 1.93-2.64 4.14-3.94 6.62-2.57 4.82-4.31 9.26-5.23 13.31-0.21 0.94-0.36 1.63-0.43 2.06s-0.05 0.73 0.06 0.9c0.27 0.3 1.09 0.61 2.46 0.92z"/>
    <polygon class="st1" points="347.01 0.71 409.56 56.99 335.59 31.41"/>
    <path class="st1" d="m352.2 192.03-90.7-26.16 49.49-129.37 103.42 30.97-62.21 124.56zm-41.25-129.51-32.34 82.25 15.26 4.48 8.66-22.55 14.26-39-4.81 66.83 10.15 2.95 46.7-54.44-19.32 37.4-9.75 22.14 14.36 4.13 38.93-79.76-20.54-6.07-46.14 52.68 6.16-64.58-21.58-6.46z"/>
</svg>