<?xml version="1.0" encoding="UTF-8"?>
<svg enable-background="new 0 0 512 453" version="1.1" viewBox="0 0 512 453" xml:space="preserve" xmlns="http://www.w3.org/2000/svg">
    <style type="text/css">
        .fill {fill: #5c98ec;}
	    .eye{fill:#FFFFFF;}
    </style>
    <path class="fill" d="m285.72 353.92c-3.43-89.74-30.32-133.44-87.63-140.4 5.1 3.17 8.2 5.05 11.26 7 40.25 25.55 55 63.38 52.18 109.38-0.96 15.7-2.99 31.33-4.46 46.99-0.95 10.14 2.79 12.77 13.43 11.44 39.25-4.89 78.63-8.81 118.02-12.47 17.07-1.59 33.54 1.26 47.38 12.59 14.9 12.2 12.81 26.95-5.36 33.5-6.33 2.28-14.32 3.03-20.78 1.42-51.84-12.95-102.41-9.01-152.95 7.5-26.14 8.54-31.1 5.65-43.22-18.87-18.64-37.72-50.29-55.74-90.22-61.77-15.04-2.27-30.25-3.47-45.36-5.32-26.84-3.3-47.02-18.13-63.77-38.1-6.42-7.66-13.95-16.77-5.72-27.15 7.82-9.87 18.71-11.32 30.29-6.18 2.27 1.01 4.57 1.96 8.79 3.75-0.62-5.94-0.61-10.73-1.66-15.28-15.06-65.54 32.65-127.89 104.58-134.28 47.05-4.18 90.56 7.23 132.22 28.24 13.09 6.6 26.54 12.7 40.33 17.62 12.75 4.55 24.26 1.33 31.6-11.02 7.12-11.98 3.21-22.71-5.45-31.89-11.5-12.18-23.56-23.83-35.44-35.65-19.3-19.19-31.57-42.14-36.4-68.91-2.61-14.49 1.44-19.12 15.86-17.95 20.99 1.71 39.8 10.67 49.62 28.7 23.64 43.41 61.11 69.18 103.94 89.86 31.84 15.38 49.91 41.81 57.81 76.01 5 21.64-2.85 36.4-24.73 40.5-13.37 2.5-27.22 3.04-40.87 3.35-25.91 0.59-45.79 10.37-58.93 33.64-20.87 36.9-55.99 55.93-94.36 73.75z"/>
    <path class="fill" d="m422.78 101.08c-25.08-10.51-46.07-27.25-57.09-52.34-4.66-10.61-3.07-26 0.58-37.69 4.34-13.89 28.48-14.46 37.9-0.48 6.74 10.01 10.59 22.78 12.77 34.85 3.29 18.19 4 36.84 5.84 55.66z"/>
    <path class="fill" d="m203.58 429.65c-26.75 26.58-58.69 26.04-90.61 21.75-5.32-0.72-11.53-11.72-13.16-18.92-2.21-9.77 4-17.98 14.18-20.16 7.25-1.55 15.16-1.61 22.55-0.61 25.92 3.52 25.88 3.81 48.68-10.35 6.08 9.38 12.19 18.78 18.36 28.29z"/>
    <circle class="eye" cx="425.5" cy="167.5" r="16"/>
</svg>