<?xml version="1.0" encoding="UTF-8"?>
<svg enable-background="new 0 0 512 453" version="1.1" viewBox="0 0 512 453" xml:space="preserve" xmlns="http://www.w3.org/2000/svg">
    <style type="text/css">
        .fill {fill: #5c98ec;}
	    .eye{fill:#FFFFFF;}
    </style>
    <path class="fill" d="m67.91 351.6c-6.35-2.92-12.88-3.72-19.44-4.14-11.33-0.73-22.52 0.26-33.43 3.87-5.45 1.81-10.06 0.2-12.64-4.17-2.61-4.43-1.88-9.91 1.96-14.17 7.05-7.82 14.7-14.92 23.02-20.91 2.72 3.35 5.03 6.74 7.86 9.58 9.64 9.68 21.68 13.45 34.53 14.73 20.12 2.01 39.95-0.85 59.62-4.84 60.87-12.35 118.36-34.37 171.69-68.03 13.35-8.43 26.44-17.38 37.91-28.51 19.12-18.56 27.13-41.21 20.48-68.46-1.02-4.17-3.32-7.99-4.9-12.02-0.45-1.15-0.93-2.68-0.58-3.72 6.86-19.82 13.49-39.75 20.97-59.31 2.83-7.4 7.11-14.38 11.65-20.82 14.91-21.17 36.49-28.82 60.49-21.41 26.06 8.04 43.89 26.32 55.14 51.93 8.69 19.79 11.98 40.51 6.73 62.06-6.77 27.75-27.17 45.37-54.24 46.77-12.54 0.65-23.99-2.91-33.86-11.42-0.56-0.48-1.15-0.92-2.46-1.96-7.4 9.23-15.13 18.07-21.98 27.61-13.74 19.13-23.44 40.32-27.62 64.15-3.54 20.19-1.44 39.91 4.45 59.21 3.88 12.71 8.34 25.23 12.76 37.75 3.49 9.88 0.28 19.37-8.58 24.25-4.95 2.73-10.3 3.45-15.77 3.47-11.07 0.04-22.14-0.3-33.2 0.09-13.26 0.48-23.78-5.08-31.37-16.05-4.9-7.1-8.41-15.27-12.51-22.98-0.56-1.06-0.92-2.24-1.42-3.49-6.52 1.56-12.88 3.28-19.32 4.59-26.27 5.34-52.77 6.86-79.41 4.55-11.22-0.97-22.39-2.67-33.55-4.27-2.23-0.32-3.35 0.18-4.64 2.1-5.23 7.78-10.47 15.58-16.11 23.03-6.65 8.79-15.35 12.93-26.24 12.54-12.12-0.44-24.26-0.04-36.39-0.14-2.85-0.02-5.77-0.26-8.53-0.95-10.45-2.62-15.53-11.94-11.83-22.61 1.72-4.96 4.78-9.44 7.45-14 3.68-6.29 7.62-12.42 11.32-18.7 0.91-1.51 1.29-3.32 1.99-5.2zm382.18-224.08c-0.02 8.96 6.62 16.07 15.1 16.15 8.41 0.08 15.31-7.01 15.45-15.88 0.14-8.92-6.8-16.29-15.35-16.29-8.49 0-15.17 7.04-15.2 16.02z"/>
    <path class="fill" d="m203.14 89.88c33.34-0.04 58.87 7.17 81.09 25.33 10.63 8.69 19.33 19.23 26.48 31.25 0.67 1.12 2.13 2.21 3.34 2.39 20.41 3.01 29.06 22.25 27.26 39.04-1.46 13.67-7.73 24.56-17.7 33.2-17.36 15.04-36.45 27.24-56.35 38.06-47.33 25.74-97.3 43.21-149.72 52.76-14.99 2.73-30.12 4.65-45.4 2.97-3.16-0.35-6.31-0.97-9.43-1.65-21.25-4.61-30.13-32.93-14.3-50.75 1.91-2.15 2.3-3.8 1.42-6.68-5.9-19.38-4.83-38.88 0.28-58.16 9.43-35.52 30.38-61.67 60.24-79.91 30.38-18.53 63.51-26.89 92.79-27.85z"/>
    <path class="eye" d="m450.09 127.52c0.02-8.98 6.71-16.02 15.2-16.02 8.55 0 15.5 7.37 15.35 16.29-0.14 8.87-7.04 15.96-15.45 15.88-8.47-0.08-15.12-7.19-15.1-16.15z"/>
</svg>