<?xml version="1.0" standalone="no"?>
<!DOCTYPE svg PUBLIC "-//W3C//DTD SVG 20010904//EN"
 "http://www.w3.org/TR/2001/REC-SVG-20010904/DTD/svg10.dtd">
<svg version="1.0" xmlns="http://www.w3.org/2000/svg"
 width="512.000000pt" height="512.000000pt" viewBox="0 0 512.000000 512.000000"
 preserveAspectRatio="xMidYMid meet">
<metadata>
Created by potrace 1.14, written by Peter Selinger 2001-2017
</metadata>
<g transform="translate(0.000000,512.000000) scale(0.100000,-0.100000)"
fill="#000000" stroke="none">
<path d="M2762 5019 c-133 -355 -282 -761 -284 -771 -2 -7 66 -36 182 -76 102
-35 194 -68 205 -72 11 -5 40 -15 65 -23 25 -9 162 -56 305 -105 491 -170 790
-274 915 -317 69 -23 152 -52 184 -64 33 -11 61 -19 63 -17 2 2 -17 22 -43 45
-58 51 -198 178 -234 211 -15 14 -59 53 -97 87 -38 34 -83 74 -100 90 -16 15
-63 57 -103 93 -41 36 -98 88 -129 115 -77 70 -94 86 -132 120 -29 25 -215
192 -379 340 -24 22 -56 52 -71 66 -15 14 -42 38 -61 54 -18 15 -73 64 -122
109 -170 155 -154 143 -164 115z"/>
<path d="M1807 4046 c-14 -33 -51 -128 -82 -211 -31 -82 -68 -177 -80 -210
-13 -33 -58 -150 -100 -260 -42 -110 -93 -245 -115 -300 -40 -104 -215 -562
-301 -790 -27 -71 -53 -139 -58 -150 -5 -11 -29 -74 -54 -140 -25 -66 -143
-374 -262 -684 -118 -311 -214 -570 -212 -576 3 -5 80 -32 173 -58 93 -27 198
-57 234 -68 189 -56 280 -82 330 -95 30 -8 93 -26 140 -40 47 -14 110 -32 140
-40 30 -8 93 -27 139 -41 47 -14 89 -26 95 -27 6 -2 43 -12 81 -24 39 -12 95
-28 125 -36 66 -18 796 -229 861 -249 l46 -14 248 496 c136 273 503 1007 815
1631 l568 1135 -317 95 c-174 52 -318 95 -321 95 -5 1 -114 34 -280 85 -52 16
-444 133 -870 260 -426 127 -807 242 -846 255 l-72 23 -25 -62z m128 -656
c339 -103 430 -130 443 -130 16 0 15 -6 -12 -270 -3 -30 -8 -81 -11 -112 -13
-154 -21 -229 -30 -318 -2 -19 -7 -69 -10 -110 -3 -41 -8 -88 -10 -105 -3 -16
-7 -57 -10 -90 -3 -33 -8 -82 -10 -110 -9 -87 -14 -148 -20 -220 -3 -38 -7
-84 -9 -102 -3 -17 -7 -64 -11 -105 -3 -40 -8 -90 -11 -110 -3 -21 -3 -38 -1
-38 3 0 45 46 93 102 49 55 98 111 109 122 11 12 47 53 80 91 33 39 62 72 65
75 3 3 32 37 65 75 33 39 69 79 80 90 11 11 42 47 70 80 27 33 56 67 65 75 8
8 42 47 75 85 33 39 62 72 65 75 3 3 36 41 75 85 38 44 72 82 75 85 3 3 52 59
109 125 57 66 121 139 143 163 l39 42 187 -54 c277 -82 337 -99 340 -102 4 -3
-40 -95 -243 -509 -81 -165 -182 -372 -225 -460 -220 -454 -540 -1109 -544
-1112 -1 -1 -49 11 -107 28 -57 17 -139 40 -181 52 -43 12 -78 24 -78 28 0 6
112 267 160 374 10 22 37 82 60 133 23 51 61 130 84 175 261 500 450 873 434
857 -8 -8 -149 -172 -314 -365 -164 -192 -301 -352 -304 -355 -3 -3 -71 -81
-150 -175 -80 -93 -157 -183 -171 -200 -15 -16 -81 -94 -148 -172 l-121 -141
-33 9 c-17 6 -54 16 -82 24 -27 7 -62 18 -77 24 -16 6 -28 8 -28 5 0 -2 -9 0
-21 6 -19 11 -20 17 -15 103 4 51 9 121 11 157 8 117 15 224 20 275 2 28 7 91
10 140 3 50 8 115 10 145 8 106 15 196 20 280 4 47 8 105 10 130 2 25 7 90 10
145 4 55 8 116 10 135 10 115 16 234 11 229 -3 -3 -32 -79 -65 -170 -202 -562
-515 -1396 -530 -1412 -4 -4 -70 11 -147 33 -220 63 -244 71 -244 81 0 4 7 23
15 41 8 18 100 254 205 523 105 270 195 499 200 510 5 11 43 108 85 215 42
107 80 204 85 215 7 16 199 503 241 613 7 18 14 22 32 17 12 -4 49 -15 82 -25z"/>
</g>
</svg>
